<svg xmlns="http://www.w3.org/2000/svg" version="1.1" xmlns:xlink="http://www.w3.org/1999/xlink" xmlns:svgjs="http://svgjs.dev/svgjs" width="100%" height="100%" viewBox="0 0 1000 600"><rect width="1000" height="600" x="0" y="0" fill="#ffffff"/><g><rect width="333.3333333333333" height="333.3333333333333" rx="13.333333333333334" ry="13.333333333333334" y="77.77777014838344" fill="#333333" transform="matrix(2.2499999313354513,0,0,2.2499999313354517,0,-249.99999084472722)" x="55.55555725097656"/><path d="M130.9078927273843 171.650324603586L148.55495050594192 171.650324603586L148.55495050594192 317.2385512766863L130.9078927273843 317.2385512766863L130.9078927273843 171.650324603586ZM295.8895006050454 273.3353676019067L313.536558383603 279.9530142688658Q308.9103331673491 292.2998272632385 300.30126504968473 301.2459051648684Q291.69219693202035 310.1919830664983 280.1113152648419 314.81820828275215Q268.53043359766355 319.444433499006 254.86621872051646 319.444433499006L254.86621872051646 319.444433499006Q234.1247983800937 319.444433499006 219.0206326078213 310.28389482576165Q203.9164668355489 301.1233561525173 195.64440850185002 284.3647787135052Q187.37235016815114 267.60620127449306 187.37235016815114 244.4444379401361L187.37235016815114 244.4444379401361Q187.37235016815114 221.28267460577925 195.64440850185002 204.52409716676712Q203.9164668355489 187.76551972775493 219.0206326078213 178.60498105451063Q234.1247983800937 169.4444423812663 254.43729717728763 169.4444423812663L254.43729717728763 169.4444423812663Q268.53043359766355 169.4444423812663 279.55984470926205 173.3047362703258Q290.58925582086056 177.16503015938525 298.43239261133056 184.76306892515308Q306.2755294018006 192.39174494400876 310.90175461805444 203.4211560556072L310.90175461805444 203.4211560556072L293.46915761111126 211.57066537695502Q288.628471623243 199.0093916109678 279.4679329499987 192.4836567032721Q270.3073942767544 185.98855904866403 255.7546990600619 185.98855904866403L255.7546990600619 185.98855904866403Q240.95690581866722 185.98855904866403 229.71303393545432 192.94321549958866Q218.46916205224136 199.8978719505133 212.18852516924778 212.8880672597293Q205.9078882862542 225.90889982203308 205.9078882862542 244.4444379401361L205.9078882862542 244.4444379401361Q205.9078882862542 262.7655152866248 211.85151538528228 275.8782596081919Q217.79514248431036 288.991003929759 228.82455359590887 295.94566038068365Q239.8539647075074 302.9003168316083 254.86621872051646 302.9003168316083L254.86621872051646 302.9003168316083Q269.4189139372089 302.9003168316083 280.23386427719305 295.5167388374548Q291.0488146171771 288.1331608433013 295.8895006050454 273.3353676019067L295.8895006050454 273.3353676019067Z " fill="#f4efea" transform="matrix(2.2499999313354513,0,0,2.2499999313354517,0,-249.99999084472722)"/><path d="MNaN 244.44444105360233 " fill="#333333" transform="matrix(2.2499999313354513,0,0,2.2499999313354517,0,-249.99999084472722)"/></g></svg>